<svg xmlns="http://www.w3.org/2000/svg" xmlns:xlink="http://www.w3.org/1999/xlink" width="66" height="66" viewBox="0 0 66 66"><defs><style>.a{opacity:0.5;}.b{fill:#fff;}.c{filter:url(#a);}</style><filter id="a" x="0" y="0" width="66" height="66" filterUnits="userSpaceOnUse"><feOffset dy="3" input="SourceAlpha"/><feGaussianBlur stdDeviation="3" result="b"/><feFlood flood-opacity="0.161"/><feComposite operator="in" in2="b"/><feComposite in="SourceGraphic"/></filter></defs><g transform="translate(-1055 -5626)"><g class="c" transform="matrix(1, 0, 0, 1, 1055, 5626)"><circle class="a" cx="24" cy="24" r="24" transform="translate(9 6)"/></g><path class="b" d="M1082.15,745.75a2.41,2.41,0,0,1-1.89-.9,2.331,2.331,0,0,1,.485-3.363l5.3-3.738-5.294-3.736a2.357,2.357,0,0,1-.974-1.584,2.331,2.331,0,0,1,.482-1.773,2.436,2.436,0,0,1,3.293-.467l8,5.65a2.328,2.328,0,0,1,0,3.821l-8,5.648A2.433,2.433,0,0,1,1082.15,745.75Z" transform="translate(1.849 4918.25)"/></g></svg>