<svg xmlns="http://www.w3.org/2000/svg" xmlns:xlink="http://www.w3.org/1999/xlink" viewBox="0 0 433.03 138.7"><defs><style>.cls-1{fill:url(#linear-gradient);}.cls-2{fill:url(#linear-gradient-2);}.cls-3{fill:url(#linear-gradient-3);}.cls-4{fill:url(#linear-gradient-4);}.cls-5{fill:url(#linear-gradient-5);}.cls-6{fill:url(#linear-gradient-6);}.cls-7{fill:url(#linear-gradient-7);}.cls-8{fill:url(#linear-gradient-8);}.cls-9{fill:url(#linear-gradient-9);}.cls-10{fill:url(#linear-gradient-10);}.cls-11{fill:url(#linear-gradient-11);}.cls-12{fill:url(#linear-gradient-12);}.cls-13{fill:url(#linear-gradient-13);}.cls-14{fill:url(#linear-gradient-14);}.cls-15{fill:url(#linear-gradient-15);}.cls-16,.cls-17,.cls-18{fill:#356cb6;}.cls-17{stroke:#356cb6;stroke-miterlimit:10;stroke-width:0.51px;}.cls-18{font-size:16px;font-family:Meiryo-Bold, Meiryo;font-weight:700;letter-spacing:0.1em;}.cls-19{letter-spacing:0.04em;}.cls-20{letter-spacing:0.02em;}.cls-21{letter-spacing:0.04em;}.cls-22{letter-spacing:-0.5em;}</style><linearGradient id="linear-gradient" x1="13.01" y1="44.56" x2="13.01" gradientUnits="userSpaceOnUse"><stop offset="0" stop-color="#005eac"/><stop offset="1" stop-color="#17288a"/></linearGradient><linearGradient id="linear-gradient-2" x1="43.48" y1="43.54" x2="43.48" y2="1.02" xlink:href="#linear-gradient"/><linearGradient id="linear-gradient-3" x1="66.86" y1="43.54" x2="66.86" y2="1.02" xlink:href="#linear-gradient"/><linearGradient id="linear-gradient-4" x1="94.97" y1="43.54" x2="94.97" y2="1.02" xlink:href="#linear-gradient"/><linearGradient id="linear-gradient-5" x1="130.1" y1="43.54" x2="130.1" y2="1.02" xlink:href="#linear-gradient"/><linearGradient id="linear-gradient-6" x1="172.4" y1="43.54" x2="172.4" y2="1.02" xlink:href="#linear-gradient"/><linearGradient id="linear-gradient-7" x1="195.15" y1="43.54" x2="195.15" y2="1.02" xlink:href="#linear-gradient"/><linearGradient id="linear-gradient-8" x1="217.02" y1="44.56" x2="217.02" y2="0" xlink:href="#linear-gradient"/><linearGradient id="linear-gradient-9" x1="238.92" y1="43.54" x2="238.92" y2="1.02" xlink:href="#linear-gradient"/><linearGradient id="linear-gradient-10" x1="262.32" y1="44.56" x2="262.32" y2="0" xlink:href="#linear-gradient"/><linearGradient id="linear-gradient-11" x1="295.15" y1="43.54" x2="295.15" y2="1.02" xlink:href="#linear-gradient"/><linearGradient id="linear-gradient-12" x1="338.58" y1="43.54" x2="338.58" y2="0.85" xlink:href="#linear-gradient"/><linearGradient id="linear-gradient-13" x1="366.34" y1="44.39" x2="366.34" y2="0.85" xlink:href="#linear-gradient"/><linearGradient id="linear-gradient-14" x1="393.68" y1="44.39" x2="393.68" y2="0.85" xlink:href="#linear-gradient"/><linearGradient id="linear-gradient-15" x1="421.55" y1="44.39" x2="421.55" y2="0.85" xlink:href="#linear-gradient"/></defs><title>img_index_87</title><g id="レイヤー_2" data-name="レイヤー 2"><g id="レイヤー_1-2" data-name="レイヤー 1"><path class="cls-1" d="M17.29,13.94c.06-3.79-.28-7.53-4.65-7.53-2.66,0-4.36,1.07-4.36,4,0,3.23,2,4.48,4.53,6.07a73,73,0,0,1,9.64,7A11.11,11.11,0,0,1,26,32.31c0,8-5.33,12.25-13.1,12.25C3.4,44.56,0,39.23,0,31.63V28.51H7.94V31c-.17,4.14,1.07,7.14,5,7.14,3.35,0,4.94-1.76,4.94-5a6.45,6.45,0,0,0-3.18-5.61C10.54,24.32,5.38,22,2.15,17.74a11.82,11.82,0,0,1-2-6.52C.11,4,4.19,0,12.58,0,25.23,0,24.89,9.75,24.94,13.94Z"/><path class="cls-2" d="M30,43.54V1h7.94V17.86H49V1H57V43.54H49V24.09H37.93V43.54Z"/><path class="cls-3" d="M62.89,43.54V1h7.94V43.54Z"/><path class="cls-4" d="M84.63,43.54H76.69V1H89.33l4.25,19.73a92.68,92.68,0,0,1,1.48,9.8h.11a92.44,92.44,0,0,1,1.25-9.8L100.67,1h12.58V43.54h-7.93V30.16c0-8.45.17-16.9.68-25.34h-.11L97.38,43.54H92.56L84.23,4.82H84c.51,8.44.68,16.89.68,25.34Z"/><path class="cls-5" d="M117.77,37.19l13.66-26.36a22.57,22.57,0,0,1,2.22-3.74,18.66,18.66,0,0,1-3.07.17h-11.9V1h23.24V7.37L128.26,33.73a23.21,23.21,0,0,1-2.21,3.74,18.48,18.48,0,0,1,3.06-.17h13.32v6.24H117.77Z"/><path class="cls-6" d="M178.49,1H187l-9.18,42.52h-10.6L157.8,1h8.5l5,27.27c.45,2.38.74,4.81,1,7.25a33.57,33.57,0,0,1,.34,3.52h.12a33.57,33.57,0,0,1,.34-3.52c.22-2.44.51-4.87,1-7.25Z"/><path class="cls-7" d="M191.18,43.54V1h7.94V43.54Z"/><path class="cls-8" d="M221.3,13.94c.06-3.79-.28-7.53-4.65-7.53-2.66,0-4.36,1.07-4.36,4,0,3.23,2,4.48,4.53,6.07a73,73,0,0,1,9.64,7,11.11,11.11,0,0,1,3.57,8.9c0,8-5.33,12.25-13.1,12.25-9.52,0-12.92-5.33-12.92-12.93V28.51H212V31c-.17,4.14,1.07,7.14,5,7.14,3.35,0,4.94-1.76,4.94-5a6.45,6.45,0,0,0-3.18-5.61c-4.14-3.23-9.3-5.56-12.53-9.81a11.82,11.82,0,0,1-2-6.52C204.12,4,208.2,0,216.59,0c12.64,0,12.3,9.75,12.36,13.94Z"/><path class="cls-9" d="M235,43.54V1h7.94V43.54Z"/><path class="cls-10" d="M248.43,18.88C248.77,8.05,249.62,0,262.32,0s13.54,8.05,13.88,18.88v6.06c0,11.34-.85,19.62-13.88,19.62s-13.89-8.28-13.89-19.62Zm8.16,10c0,3.51.28,9.24,5.73,9.24,5.66,0,5.72-5.84,5.72-9.92V17.35c0-3.41.17-10.94-5.72-10.94-6.24,0-5.73,7.42-5.73,10.71Z"/><path class="cls-11" d="M300.68,1h7.93V43.54h-8.27L294.16,28.4a142.57,142.57,0,0,1-5.67-16.89h-.11c.28,3.51.62,7.82.85,12.13s.4,8.5.4,11.9v8h-7.94V1h8.22l6.18,15.48a142.72,142.72,0,0,1,5.67,16.89h.11c-.28-3.86-.57-8-.79-12.08s-.4-8.16-.4-12Z"/><path class="cls-12" d="M326.65,43.54a59.68,59.68,0,0,1,.68-7.2c.51-3,2.6-6.81,7.48-12l3.85-4.09c2.56-2.77,3.92-4.13,3.92-8.16,0-3.85-1.54-5-3.8-5-1.65,0-3.12.51-3.69,2.09-.79,1.87-.56,4-.62,6H327V14c0-3.74-.17-13.26,12.08-13.15,6.69.06,11.39,4.19,11.39,11,0,4.7-1.76,8.27-5,11.62l-6.24,6.46c-1.64,1.7-4.08,4.48-4.14,7.37h14.8v6.24Z"/><path class="cls-13" d="M354.86,13c0-9,4.31-12.19,11.5-12.19S377.81,4,377.81,13v19.1c0,9-4.3,12.25-11.5,12.25s-11.45-3.24-11.45-12.25Zm7.93,19.1c-.22,4.76,1.42,6,3.46,6s3.86-1.25,3.63-6V13c.23-4.71-1.53-5.95-3.63-5.95s-3.68,1.24-3.46,5.95Z"/><path class="cls-14" d="M389.74,17.69c1.65-.12,3.46,0,5-.63,2.16-1,2.44-3.12,2.44-5.21,0-3.23-1.19-4.76-3.8-4.76-1.64,0-3.68.62-3.8,3.34v3h-7.42C381.69,5.56,385.21.85,393.32.85S404.88,5,404.88,11.79c0,3.69-1.42,8.16-5.56,8.79v.11c3.75.45,6.52,3.8,6.41,10.32,0,8.33-3.63,13.38-12.36,13.38-11,0-11.85-8-11.73-12.48V29.42h7.42c.17,3.51-.56,8.73,4.48,8.73,4.37,0,4.25-4.08,4.25-8,0-1.3-.05-3.46-.9-4.48-1.48-1.76-4.93-1.7-7.15-1.7Z"/><path class="cls-15" d="M410.08,13c0-9,4.3-12.19,11.5-12.19S433,4,433,13v19.1c0,9-4.3,12.25-11.5,12.25s-11.45-3.24-11.45-12.25ZM418,32.14c-.22,4.76,1.42,6,3.46,6s3.85-1.25,3.63-6V13c.22-4.71-1.53-5.95-3.63-5.95S417.79,8.33,418,13Z"/><path class="cls-16" d="M46.52,118l2,2.24a39.8,39.8,0,0,1-6,8.12A53.49,53.49,0,0,1,48.85,135l-3.66,3.24a57.17,57.17,0,0,0-5.68-6.83,38.05,38.05,0,0,1-11.3,7l-1.8-3.72a34.5,34.5,0,0,0,13.28-8.57,22.59,22.59,0,0,0,3.38-4.3H30.82l.67-3.77Z"/><path class="cls-16" d="M71.12,118.43l2,2.06a33.87,33.87,0,0,1-10.74,11,33,33,0,0,1,2.81,3.9l-3.83,2.73a46.65,46.65,0,0,0-9.22-11.2l3.28-2.69a54.38,54.38,0,0,1,4.79,4.7c3-2,6-4.9,7-6.69H51.39l.67-3.76Z"/><path class="cls-16" d="M95.36,125.26l-.73,4.15H72.69l.73-4.15Z"/><path class="cls-16" d="M105.47,116.39,104.31,123a70.23,70.23,0,0,1,11,4.35l-2.86,3.92a78.59,78.59,0,0,0-8.89-4.13l-2,11.56H97.05L101,116.39Z"/><path class="cls-16" d="M129.53,127.4a42.69,42.69,0,0,1-7.75,3.26L120,127a46.54,46.54,0,0,0,18.62-10.83l3.13,2.34a64.56,64.56,0,0,1-7.16,5.78l-2.51,14.2h-4.52Z"/><path class="cls-16" d="M137.93,134.83c5.12-1.53,10.49-5.05,13.24-8.67a30.48,30.48,0,0,0,4.93-9.54l4.49,1.15c-2.16,5.58-4.69,9.93-7.5,12.87a32.67,32.67,0,0,1-13.09,8Z"/><path class="cls-16" d="M159.35,132.14a64.69,64.69,0,0,0,9.5-12.91h4.57a43,43,0,0,0,9.23,14.92L179.17,138A42.82,42.82,0,0,1,170.48,124h-.1a59.22,59.22,0,0,1-8,11.15ZM178.57,124a18.23,18.23,0,0,0-1.63-4.22l2.32-.83a18,18,0,0,1,1.66,4.15Zm3.82-1.55a21.41,21.41,0,0,0-1.57-4.28l2.18-.75a14.42,14.42,0,0,1,1.66,4Z"/><path class="cls-16" d="M206.62,125.26l-.74,4.15H183.94l.74-4.15Z"/><path class="cls-16" d="M217.75,129.51a64.59,64.59,0,0,0-8.11-3l2.25-3.64a48.86,48.86,0,0,1,7.9,2.91Zm-8,4.59c5.94-.5,9.48-1.53,12.13-3.49,2.77-2.11,4.89-5.17,7-10.05l3.51,2.06c-4.5,10.63-10.15,14.6-22.22,15.63Zm11.32-10.65a62,62,0,0,0-8-3l1.82-3.67a50.83,50.83,0,0,1,8.15,2.84Z"/><path class="cls-16" d="M251.77,121.52l-2.85,16.18H232.54l.59-3.34h12.52l.59-3.32H234.76l.59-3.37h11.48l.5-2.81h-12l.59-3.34Z"/><path class="cls-16" d="M254.47,134c11-.88,15.39-4.1,19.25-14.12l3.29,2.49c-4.36,10.82-9.84,14.67-22.38,15.77Zm10-9.75a48.62,48.62,0,0,0-8.59-2.91l2.22-3.75a30.23,30.23,0,0,1,8.64,2.79Z"/><path class="cls-16" d="M288.44,120.71c.3-1.38.47-2.23.85-4.39h4.49l-.08.47c-.43,2.14-.55,2.82-.79,3.92h8.82c-1.5,7.79-2.72,12.87-3.61,14.7-1,2.06-2.39,2.84-5.19,2.84a26.8,26.8,0,0,1-4-.33l0-4.09a23.16,23.16,0,0,0,4,.5c.84,0,1-.18,1.45-1.41a65.78,65.78,0,0,0,2.1-8.44H292c-1.84,6.68-5.38,10.83-11.93,14L277.74,135c5.85-2.68,8.08-5.07,9.83-10.5h-6.76l.67-3.77Z"/><path class="cls-16" d="M303.89,134c11-.88,15.39-4.1,19.25-14.12l3.28,2.49c-4.35,10.82-9.83,14.67-22.37,15.77Zm10-9.75a48.62,48.62,0,0,0-8.59-2.91l2.21-3.75a30.2,30.2,0,0,1,8.65,2.79Z"/><path class="cls-16" d="M323.73,135.49a44,44,0,0,0,8.94-17.32L337,119c-2.73,8.54-6,14.92-9.84,19.22ZM343,138.3c-2.14-4.77-3.55-12.11-3.71-19.32l4.38-1.23a55.56,55.56,0,0,0,3.65,17.89Zm8.27-20a3.86,3.86,0,0,1-3.67,3.07,2.55,2.55,0,0,1-2.55-3.09,3.9,3.9,0,0,1,3.68-3A2.52,2.52,0,0,1,351.22,118.3Zm-4.51,0a1.14,1.14,0,0,0,1.16,1.38,1.75,1.75,0,0,0,1.64-1.38,1.14,1.14,0,0,0-1.15-1.38A1.77,1.77,0,0,0,346.71,118.3Z"/><path class="cls-16" d="M372.51,132.7l-.72,4.07h-22.3l.72-4.07Zm-.15-13.37-.71,4H354.36l.7-4Z"/><path class="cls-16" d="M397,125.26l-.73,4.15H374.3l.73-4.15Z"/><path class="cls-17" d="M133.16,102l-.07.32c-.32,1.5.53,2,1.43,2a2.17,2.17,0,0,0,2.36-1.8c.52-2.44-4.5-2.17-3.79-5.49A3.75,3.75,0,0,1,137,94c2,0,2.94,1,2.37,3.23h-1.47c.28-1.21.06-2-1.27-2a2,2,0,0,0-2,1.62c-.52,2.43,4.51,2.08,3.77,5.58a3.77,3.77,0,0,1-4.08,3.08c-3.27,0-2.74-2.46-2.48-3.52Z"/><path class="cls-17" d="M143.65,105.26l1.14-5.36c.16-.78.1-1.5-.91-1.5a1.85,1.85,0,0,0-1.2.52,3,3,0,0,0-.53,1.14l-1.1,5.2h-1.26l1.3-6.12c.12-.54.2-1.07.27-1.61h1.33l-.21,1h0a2.35,2.35,0,0,1,2.16-1.12,1.49,1.49,0,0,1,1.6,1,2.32,2.32,0,0,1,2-1c.81,0,2.08.18,1.69,2l-1.25,5.88h-1.25l1.13-5.36c.17-.78.11-1.5-.9-1.5a1.35,1.35,0,0,0-1,.29,2.55,2.55,0,0,0-.72,1.37l-1.11,5.2Z"/><path class="cls-17" d="M155.1,104.14h0a2.43,2.43,0,0,1-2.22,1.27c-1.63,0-1.88-1-1.57-2.54.5-2.34,2.82-2.45,4.57-2.4.25-1,.5-2.14-.85-2.14a1.46,1.46,0,0,0-1.5,1.37h-1.36a2.78,2.78,0,0,1,3.11-2.32c2,0,2.29,1,2,2.32l-.79,3.72a11.86,11.86,0,0,0-.23,1.84h-1.38ZM152.52,103c-.16.75.06,1.43.9,1.43s1.82-.48,2.23-3C154.45,101.43,152.86,101.33,152.52,103Z"/><path class="cls-17" d="M161.11,98.69h0a2.59,2.59,0,0,1,2.67-1.31l-.28,1.3-.32-.05c-.11,0-.21,0-.33,0-1.4,0-2,1.06-2.19,2.1l-1,4.56h-1.26l1.65-7.73h1.25Z"/><path class="cls-17" d="M165.41,97.53l.31-1.48,1.38-.57-.44,2h1.69l-.21,1h-1.68l-1,4.73c-.11.49-.24,1.12.91,1.12l.58-.06-.21,1c-.42,0-.85.12-1.26.12-1.2,0-1.63-.49-1.44-1.38l1.17-5.49h-1.27l.2-1Z"/><path class="cls-17" d="M173,105.26H171.6L174,94.21h1.41Z"/><path class="cls-17" d="M179.79,105.26l1.14-5.36c.18-.82,0-1.5-1-1.5-1.38,0-1.84,1.23-2.06,2.28l-1,4.58H175.6l1.3-6.12c.12-.54.2-1.07.27-1.61h1.33l-.21,1h.06a2.55,2.55,0,0,1,2.31-1.15c1.65,0,1.85,1,1.53,2.52l-1.14,5.36Z"/><path class="cls-17" d="M187.49,105.26l1.13-5.36c.18-.82,0-1.5-1-1.5-1.38,0-1.84,1.23-2.06,2.28l-1,4.58h-1.26l1.3-6.12c.12-.54.2-1.07.27-1.61h1.33l-.21,1H186a2.57,2.57,0,0,1,2.31-1.15c1.65,0,1.85,1,1.53,2.52l-1.14,5.36Z"/><path class="cls-17" d="M191.54,101.51c.48-2.26,1.13-4.13,3.81-4.13s2.54,1.87,2.06,4.13c-.72,3.41-2.13,3.9-3.76,3.9S190.81,104.92,191.54,101.51Zm4.67-.53c.45-2.12-.11-2.58-1.08-2.58s-1.72.46-2.16,2.58c-.54,2.5-.41,3.41.89,3.41S195.68,103.48,196.21,101Z"/><path class="cls-17" d="M199.28,97.53h1.41l.34,6.55h0l3.26-6.55h1.32l-4.06,7.73h-1.64Z"/><path class="cls-17" d="M209.31,104.14h0a2.43,2.43,0,0,1-2.22,1.27c-1.63,0-1.88-1-1.57-2.54.5-2.34,2.82-2.45,4.57-2.4.25-1,.5-2.14-.85-2.14a1.46,1.46,0,0,0-1.5,1.37h-1.36a2.78,2.78,0,0,1,3.11-2.32c2,0,2.29,1,2,2.32l-.79,3.72a11.9,11.9,0,0,0-.24,1.84h-1.38ZM206.73,103c-.16.75.06,1.43.9,1.43s1.82-.48,2.23-3C208.66,101.43,207.07,101.33,206.73,103Z"/><path class="cls-17" d="M214.45,97.53l.32-1.48,1.37-.57-.43,2h1.68l-.2,1h-1.68l-1,4.73c-.1.49-.24,1.12.91,1.12l.58-.06-.2,1c-.42,0-.86.12-1.27.12-1.19,0-1.62-.49-1.44-1.38l1.17-5.49H213l.2-1Z"/><path class="cls-17" d="M218.18,105.26h-1.26l1.65-7.73h1.25Zm1-11.05h1.41l-.28,1.35h-1.41Z"/><path class="cls-17" d="M221,101.51c.48-2.26,1.14-4.13,3.82-4.13s2.54,1.87,2.06,4.13c-.73,3.41-2.13,3.9-3.77,3.9S220.25,104.92,221,101.51Zm4.68-.53c.44-2.12-.12-2.58-1.08-2.58s-1.72.46-2.17,2.58c-.53,2.5-.4,3.41.9,3.41S225.11,103.48,225.65,101Z"/><path class="cls-17" d="M232.26,105.26l1.14-5.36c.17-.82,0-1.5-1.05-1.5-1.37,0-1.83,1.23-2.06,2.28l-1,4.58h-1.25l1.3-6.12c.11-.54.19-1.07.26-1.61H231l-.21,1h.06a2.57,2.57,0,0,1,2.31-1.15c1.65,0,1.86,1,1.53,2.52l-1.14,5.36Z"/><path class="cls-17" d="M245.82,97.26a2.39,2.39,0,0,0,0-1.61,1.52,1.52,0,0,0-1.14-.48,2.22,2.22,0,0,0-1.85.86,5.19,5.19,0,0,0-.81,2.3l-.62,3c-.58,2.71.24,3,1.33,3,.42,0,1.76-.15,2.23-2.31h1.46c-.68,3.49-3.15,3.49-3.87,3.49-1.38,0-3.47-.09-2.56-4.38l.67-3.12c.66-3.12,2.22-4,4.4-4s2.79,1.13,2.19,3.28Z"/><path class="cls-17" d="M248.2,101.51c.48-2.26,1.13-4.13,3.81-4.13s2.55,1.87,2.06,4.13c-.72,3.41-2.13,3.9-3.76,3.9S247.47,104.92,248.2,101.51Zm4.67-.53c.45-2.12-.11-2.58-1.07-2.58s-1.72.46-2.17,2.58c-.54,2.5-.41,3.41.89,3.41S252.34,103.48,252.87,101Z"/><path class="cls-17" d="M259.12,105.26l1.14-5.36c.16-.78.1-1.5-.91-1.5a1.85,1.85,0,0,0-1.2.52,2.85,2.85,0,0,0-.53,1.14l-1.1,5.2h-1.26l1.3-6.12c.11-.54.2-1.07.27-1.61h1.33l-.21,1h0a2.38,2.38,0,0,1,2.17-1.12,1.48,1.48,0,0,1,1.59,1,2.35,2.35,0,0,1,2.05-1c.81,0,2.07.18,1.69,2l-1.25,5.88H263l1.14-5.36c.17-.78.11-1.5-.9-1.5a1.35,1.35,0,0,0-1,.29,2.48,2.48,0,0,0-.72,1.37l-1.11,5.2Z"/><path class="cls-17" d="M269.24,98.45h0a2.44,2.44,0,0,1,2-1.07c1.24,0,2.39.49,1.67,3.89-.41,1.92-.94,4.14-3.44,4.14a1.53,1.53,0,0,1-1.5-.93h0l-.79,3.7h-1.26l2.27-10.65h1.25Zm2.38,2.82c.25-1.17.61-2.87-1-2.87s-1.86,2.15-2.11,3.33c-.22,1-.5,2.66.89,2.66S271.18,103.33,271.62,101.27Z"/><path class="cls-17" d="M278.19,104.14h0a2.42,2.42,0,0,1-2.21,1.27c-1.64,0-1.89-1-1.58-2.54.5-2.34,2.82-2.45,4.57-2.4.25-1,.5-2.14-.85-2.14a1.46,1.46,0,0,0-1.5,1.37h-1.36a2.78,2.78,0,0,1,3.11-2.32c2,0,2.29,1,2,2.32l-.79,3.72a13.26,13.26,0,0,0-.24,1.84H278ZM275.61,103c-.16.75.07,1.43.91,1.43s1.81-.48,2.22-3C277.54,101.43,276,101.33,275.61,103Z"/><path class="cls-17" d="M285.73,105.26l1.14-5.36c.17-.82,0-1.5-1.05-1.5-1.38,0-1.83,1.23-2.06,2.28l-1,4.58h-1.26l1.31-6.12c.11-.54.19-1.07.26-1.61h1.33l-.21,1h.06a2.57,2.57,0,0,1,2.31-1.15c1.65,0,1.86,1,1.53,2.52L287,105.26Z"/><path class="cls-17" d="M291.73,103.82h0L295,97.53h1.36l-5.76,10.65h-1.31l1.5-2.92-1-7.73h1.46Z"/><text class="cls-18" transform="translate(150.12 65.41)">〈<tspan class="cls-19" x="17.6" y="0">長期ビ</tspan><tspan class="cls-20" x="67.52" y="0">ジョ</tspan><tspan class="cls-21" x="100.16" y="0">ン</tspan><tspan class="cls-22" x="116.8" y="0">〉</tspan></text></g></g></svg>